<?xml version="1.0" encoding="utf-8"?>
<svg version="1.1" xmlns:xlink="http://www.w3.org/1999/xlink" width="364px" height="50px" xmlns="http://www.w3.org/2000/svg">
  <defs>
    <filter x="1069px" y="218px" width="364px" height="50px" filterUnits="userSpaceOnUse" id="filter43">
      <feOffset dx="1" dy="1" in="SourceAlpha" result="shadowOffsetInner" />
      <feGaussianBlur stdDeviation="1.5" in="shadowOffsetInner" result="shadowGaussian" />
      <feComposite in2="shadowGaussian" operator="atop" in="SourceAlpha" result="shadowComposite" />
      <feColorMatrix type="matrix" values="0 0 0 0 0  0 0 0 0 0  0 0 0 0 0  0 0 0 0.149019607843137 0  " in="shadowComposite" />
    </filter>
    <g id="widget44">
      <path d="M 1072 235  A 14 14 0 0 1 1086 221 L 1414 221  A 14 14 0 0 1 1428 235 L 1428 249  A 14 14 0 0 1 1414 263 L 1086 263  A 14 14 0 0 1 1072 249 L 1072 235  Z " fill-rule="nonzero" fill="#ffffff" stroke="none" />
      <path d="M 1071.5 235  A 14.5 14.5 0 0 1 1086 220.5 L 1414 220.5  A 14.5 14.5 0 0 1 1428.5 235 L 1428.5 249  A 14.5 14.5 0 0 1 1414 263.5 L 1086 263.5  A 14.5 14.5 0 0 1 1071.5 249 L 1071.5 235  Z " stroke-width="1" stroke="#0a0a0a" fill="none" stroke-opacity="0.450980392156863" />
    </g>
  </defs>
  <g transform="matrix(1 0 0 1 -1069 -218 )">
    <use xlink:href="#widget44" filter="url(#filter43)" />
    <use xlink:href="#widget44" />
  </g>
</svg>