<?xml version="1.0" encoding="utf-8"?>
<svg version="1.1" xmlns:xlink="http://www.w3.org/1999/xlink" width="364px" height="51px" xmlns="http://www.w3.org/2000/svg">
  <defs>
    <filter x="928px" y="988px" width="364px" height="51px" filterUnits="userSpaceOnUse" id="filter1">
      <feOffset dx="1" dy="1" in="SourceAlpha" result="shadowOffsetInner" />
      <feGaussianBlur stdDeviation="1.5" in="shadowOffsetInner" result="shadowGaussian" />
      <feComposite in2="shadowGaussian" operator="atop" in="SourceAlpha" result="shadowComposite" />
      <feColorMatrix type="matrix" values="0 0 0 0 0  0 0 0 0 0  0 0 0 0 0  0 0 0 0.149019607843137 0  " in="shadowComposite" />
    </filter>
    <g id="widget2">
      <path d="M 931 1005  A 14 14 0 0 1 945 991 L 1273 991  A 14 14 0 0 1 1287 1005 L 1287 1020  A 14 14 0 0 1 1273 1034 L 945 1034  A 14 14 0 0 1 931 1020 L 931 1005  Z " fill-rule="nonzero" fill="#ffffff" stroke="none" />
      <path d="M 930.5 1005  A 14.5 14.5 0 0 1 945 990.5 L 1273 990.5  A 14.5 14.5 0 0 1 1287.5 1005 L 1287.5 1020  A 14.5 14.5 0 0 1 1273 1034.5 L 945 1034.5  A 14.5 14.5 0 0 1 930.5 1020 L 930.5 1005  Z " stroke-width="1" stroke="#0a0a0a" fill="none" stroke-opacity="0.450980392156863" />
    </g>
  </defs>
  <g transform="matrix(1 0 0 1 -928 -988 )">
    <use xlink:href="#widget2" filter="url(#filter1)" />
    <use xlink:href="#widget2" />
  </g>
</svg>