<?xml version="1.0" encoding="utf-8"?>
<svg version="1.1" xmlns:xlink="http://www.w3.org/1999/xlink" width="206px" height="70px" xmlns="http://www.w3.org/2000/svg">
  <defs>
    <filter x="1148px" y="524px" width="206px" height="70px" filterUnits="userSpaceOnUse" id="filter31">
      <feOffset dx="1" dy="1" in="SourceAlpha" result="shadowOffsetInner" />
      <feGaussianBlur stdDeviation="1.5" in="shadowOffsetInner" result="shadowGaussian" />
      <feComposite in2="shadowGaussian" operator="atop" in="SourceAlpha" result="shadowComposite" />
      <feColorMatrix type="matrix" values="0 0 0 0 0  0 0 0 0 0  0 0 0 0 0  0 0 0 0.149019607843137 0  " in="shadowComposite" />
    </filter>
    <g id="widget32">
      <path d="M 1151 541  A 14 14 0 0 1 1165 527 L 1335 527  A 14 14 0 0 1 1349 541 L 1349 575  A 14 14 0 0 1 1335 589 L 1165 589  A 14 14 0 0 1 1151 575 L 1151 541  Z " fill-rule="nonzero" fill="#0eabdd" stroke="none" />
      <path d="M 1150.5 541  A 14.5 14.5 0 0 1 1165 526.5 L 1335 526.5  A 14.5 14.5 0 0 1 1349.5 541 L 1349.5 575  A 14.5 14.5 0 0 1 1335 589.5 L 1165 589.5  A 14.5 14.5 0 0 1 1150.5 575 L 1150.5 541  Z " stroke-width="1" stroke="#ffffff" fill="none" stroke-opacity="0.450980392156863" />
    </g>
  </defs>
  <g transform="matrix(1 0 0 1 -1148 -524 )">
    <use xlink:href="#widget32" filter="url(#filter31)" />
    <use xlink:href="#widget32" />
  </g>
</svg>