<?xml version="1.0" encoding="utf-8"?>
<svg version="1.1" xmlns:xlink="http://www.w3.org/1999/xlink" width="206px" height="67px" xmlns="http://www.w3.org/2000/svg">
  <defs>
    <filter x="48px" y="527px" width="206px" height="67px" filterUnits="userSpaceOnUse" id="filter17">
      <feOffset dx="1" dy="1" in="SourceAlpha" result="shadowOffsetInner" />
      <feGaussianBlur stdDeviation="1.5" in="shadowOffsetInner" result="shadowGaussian" />
      <feComposite in2="shadowGaussian" operator="atop" in="SourceAlpha" result="shadowComposite" />
      <feColorMatrix type="matrix" values="0 0 0 0 0  0 0 0 0 0  0 0 0 0 0  0 0 0 0.149019607843137 0  " in="shadowComposite" />
    </filter>
    <g id="widget18">
      <path d="M 51 544  A 14 14 0 0 1 65 530 L 235 530  A 14 14 0 0 1 249 544 L 249 575  A 14 14 0 0 1 235 589 L 65 589  A 14 14 0 0 1 51 575 L 51 544  Z " fill-rule="nonzero" fill="#0eabdd" stroke="none" />
      <path d="M 50.5 544  A 14.5 14.5 0 0 1 65 529.5 L 235 529.5  A 14.5 14.5 0 0 1 249.5 544 L 249.5 575  A 14.5 14.5 0 0 1 235 589.5 L 65 589.5  A 14.5 14.5 0 0 1 50.5 575 L 50.5 544  Z " stroke-width="1" stroke="#fef8f8" fill="none" stroke-opacity="0.450980392156863" />
    </g>
  </defs>
  <g transform="matrix(1 0 0 1 -48 -527 )">
    <use xlink:href="#widget18" filter="url(#filter17)" />
    <use xlink:href="#widget18" />
  </g>
</svg>