<?xml version="1.0" encoding="utf-8"?>
<svg version="1.1" xmlns:xlink="http://www.w3.org/1999/xlink" width="364px" height="50px" xmlns="http://www.w3.org/2000/svg">
  <defs>
    <filter x="969px" y="209px" width="364px" height="50px" filterUnits="userSpaceOnUse" id="filter1">
      <feOffset dx="1" dy="1" in="SourceAlpha" result="shadowOffsetInner" />
      <feGaussianBlur stdDeviation="1.5" in="shadowOffsetInner" result="shadowGaussian" />
      <feComposite in2="shadowGaussian" operator="atop" in="SourceAlpha" result="shadowComposite" />
      <feColorMatrix type="matrix" values="0 0 0 0 0  0 0 0 0 0  0 0 0 0 0  0 0 0 0.149019607843137 0  " in="shadowComposite" />
    </filter>
    <g id="widget2">
      <path d="M 972 226  A 14 14 0 0 1 986 212 L 1314 212  A 14 14 0 0 1 1328 226 L 1328 240  A 14 14 0 0 1 1314 254 L 986 254  A 14 14 0 0 1 972 240 L 972 226  Z " fill-rule="nonzero" fill="#ffffff" stroke="none" />
      <path d="M 971.5 226  A 14.5 14.5 0 0 1 986 211.5 L 1314 211.5  A 14.5 14.5 0 0 1 1328.5 226 L 1328.5 240  A 14.5 14.5 0 0 1 1314 254.5 L 986 254.5  A 14.5 14.5 0 0 1 971.5 240 L 971.5 226  Z " stroke-width="1" stroke="#0a0a0a" fill="none" stroke-opacity="0.450980392156863" />
    </g>
  </defs>
  <g transform="matrix(1 0 0 1 -969 -209 )">
    <use xlink:href="#widget2" filter="url(#filter1)" />
    <use xlink:href="#widget2" />
  </g>
</svg>