<?xml version="1.0" encoding="utf-8"?>
<svg version="1.1" xmlns:xlink="http://www.w3.org/1999/xlink" width="364px" height="51px" xmlns="http://www.w3.org/2000/svg">
  <defs>
    <filter x="59px" y="223px" width="364px" height="51px" filterUnits="userSpaceOnUse" id="filter23">
      <feOffset dx="1" dy="1" in="SourceAlpha" result="shadowOffsetInner" />
      <feGaussianBlur stdDeviation="1.5" in="shadowOffsetInner" result="shadowGaussian" />
      <feComposite in2="shadowGaussian" operator="atop" in="SourceAlpha" result="shadowComposite" />
      <feColorMatrix type="matrix" values="0 0 0 0 0  0 0 0 0 0  0 0 0 0 0  0 0 0 0.149019607843137 0  " in="shadowComposite" />
    </filter>
    <g id="widget24">
      <path d="M 62 240  A 14 14 0 0 1 76 226 L 404 226  A 14 14 0 0 1 418 240 L 418 255  A 14 14 0 0 1 404 269 L 76 269  A 14 14 0 0 1 62 255 L 62 240  Z " fill-rule="nonzero" fill="#ffffff" stroke="none" />
      <path d="M 61.5 240  A 14.5 14.5 0 0 1 76 225.5 L 404 225.5  A 14.5 14.5 0 0 1 418.5 240 L 418.5 255  A 14.5 14.5 0 0 1 404 269.5 L 76 269.5  A 14.5 14.5 0 0 1 61.5 255 L 61.5 240  Z " stroke-width="1" stroke="#0a0a0a" fill="none" stroke-opacity="0.450980392156863" />
    </g>
  </defs>
  <g transform="matrix(1 0 0 1 -59 -223 )">
    <use xlink:href="#widget24" filter="url(#filter23)" />
    <use xlink:href="#widget24" />
  </g>
</svg>